PathFileType	4	(X/Y/Z)	Walk8.trc
DataRate	CameraRate	NumFrames	NumMarkers	Units	OrigDataRate	OrigDataStartFrame	OrigNumFrames
200.000000	200.000000	8	69	mm	200.000000	713	868
Frame#	Times		RCAR		LowerBodyModelVer		LMT5		LTB1		LACR1		LTB2		LFHD		LMT1		RUA1		LToe		RFHD		RASI		RElbow		LUA1		STRN		RACR1		RFA1		RTH3		CLAV		RBHD		LTH3		RWRU		LCAR		RTH2		RLFC		LTH1		RTH1		RBack		RTB2		RTB4		LTH2		RTB3		LFA1		LElbow		LWRR		LLFC		C7		RMT1		RTH4		LPSI		RToe		RTB1		LTB4		LWRU		LTH4		LElbowM		LTB3		RPSI		LMMAL		SACR		RLMAL		RMMAL		LBHD		RCAL		RMT5		RWRR		T10		LASI		LCAL		LHJC		MidPelvis		OPelvis		PELOrigin		RHJC		XPelvis		YPelvis		ZPelvis		LLMAL		RElbowM
			X1	Y1	Z1	X2	Y2	Z2	X3	Y3	Z3	X4	Y4	Z4	X5	Y5	Z5	X6	Y6	Z6	X7	Y7	Z7	X8	Y8	Z8	X9	Y9	Z9	X10	Y10	Z10	X11	Y11	Z11	X12	Y12	Z12	X13	Y13	Z13	X14	Y14	Z14	X15	Y15	Z15	X16	Y16	Z16	X17	Y17	Z17	X18	Y18	Z18	X19	Y19	Z19	X20	Y20	Z20	X21	Y21	Z21	X22	Y22	Z22	X23	Y23	Z23	X24	Y24	Z24	X25	Y25	Z25	X26	Y26	Z26	X27	Y27	Z27	X28	Y28	Z28	X29	Y29	Z29	X30	Y30	Z30	X31	Y31	Z31	X32	Y32	Z32	X33	Y33	Z33	X34	Y34	Z34	X35	Y35	Z35	X36	Y36	Z36	X37	Y37	Z37	X38	Y38	Z38	X39	Y39	Z39	X40	Y40	Z40	X41	Y41	Z41	X42	Y42	Z42	X43	Y43	Z43	X44	Y44	Z44	X45	Y45	Z45	X46	Y46	Z46	X47	Y47	Z47	X48	Y48	Z48	X49	Y49	Z49	X50	Y50	Z50	X51	Y51	Z51	X52	Y52	Z52	X53	Y53	Z53	X54	Y54	Z54	X55	Y55	Z55	X56	Y56	Z56	X57	Y57	Z57	X58	Y58	Z58	X59	Y59	Z59	X60	Y60	Z60	X61	Y61	Z61	X62	Y62	Z62	X63	Y63	Z63	X64	Y64	Z64	X65	Y65	Z65	X66	Y66	Z66	X67	Y67	Z67	X68	Y68	Z68	X69	Y69	Z69

713	3.565	408.59	782.25	383.41	9	2014	4	177.81	93.036	-45.533	410.45	332.17	-24.151	344.46	1383.5	-95.654	317.78	305.83	-71.192	463.64	1593.9	0.45752	214.47	76.38	19.414	358.64	1193.7	309.25	252.43	35.608	-20.672	481.48	1592.2	93.369	488.09	984.54	198.57	307.67	1076.1	342.43	332.66	1203.2	-189.95	479.09	1241.9	54.089	365.26	1375.4	214.66	316.22	929.58	363.97	411.37	587.38	230.5	417.74	1344.1	53.135	329.94	1557.9	139.8	415.67	588.92	-111.16	342.01	822.13	372.69	423.62	794.48	-211.79	467.37	676.07	231.25	407.02	500.29	205.94	368.07	747.76	-151.87	415.31	754.43	275.21	237.59	1321.1	178.1	405.57	260.73	186.99	425.08	256.98	127.18	447.95	688.7	-126.3	412.86	172.52	130.65	322.39	939.45	-228.27	300.15	1077.7	-216.98	400.52	841.97	-174.78	441.66	476.01	-90.222	281.1	1421.9	73.512	478.32	34.341	93.95	411.56	670.05	251.01	219.1	964.55	30.824	546.87	30.148	121.11	436.52	343.67	130.49	339.27	281.55	-19.42	360.76	829.14	-233.94	392.14	670.1	-125.7	267.53	1049.2	-143.39	269.79	231.07	-18.905	228.73	975.29	119.86	182.58	175.97	46.737	223.91	969.92	75.342	365.18	62.03	156.57	376.59	69.24	74.011	307.54	1552.7	-0.39946	300.54	28.842	123.55	493.65	24.398	155.04	398.63	831.81	330.25	210.59	1154.3	66.111	455.24	961.16	-91.108	100.77	214.02	14.842	393.77	870.95	-29.607	347.79	971.38	64.536	471.66	972.85	53.73	471.66	972.85	53.73	416.11	886.85	167.37	551.14	973.62	44.654	470.17	1052.6	47.462	480.65	979.25	132.97	157.37	190.63	-33.325	292.39	1043	250.23
714	3.57	418.91	784.06	383.94	9	2014	4	196.65	90.85	-46.864	423.63	333.3	-24.733	350.16	1383.8	-95.954	331.4	305.4	-71.658	469.89	1594	0.24861	233.83	74.718	17.981	365.28	1194.5	309.27	273.09	35.584	-22.351	487.65	1592.2	93.159	493.6	984.38	198.51	314.95	1076.7	342.81	337.47	1203.3	-190.01	484.93	1242	53.251	371.41	1375.9	214.34	324.89	930.26	364.48	414.78	587.28	230.05	423.67	1344.3	52.77	336.05	1558.3	139.53	424.82	590.1	-111.58	351.79	823.08	373.22	423.15	792.74	-212.67	471.33	675.63	230.54	409.12	500.23	205.72	374.24	748.11	-151.96	419.97	754.24	274.77	243.63	1321.7	178.12	406.14	260.71	186.95	425.66	256.89	127.15	455.34	690.4	-127.24	413.21	172.47	130.61	324.4	939.53	-228.5	304.21	1078	-216.8	401.02	840.61	-175.55	452.48	477.63	-90.716	287.11	1422.3	73.329	478.34	34.328	93.955	415.57	669.92	250.55	224.58	965.13	30.872	546.86	30.194	121.15	437.34	343.55	130.44	353.43	281.45	-19.973	361	828.73	-234.73	399.84	670.88	-126	271.59	1049.8	-143.13	284.87	229.72	-19.452	234.3	975.76	119.88	198.85	172.87	46.227	229.44	970.45	75.378	365.26	62.106	156.52	376.66	69.282	73.972	313.67	1553.2	-0.69142	300.57	28.972	123.51	493.62	24.56	155.08	408.22	833.23	330.57	216.32	1154.7	66.409	460.78	961.84	-91.151	115.79	208.74	14.562	399.2	871.57	-29.926	353.32	971.78	64.528	477.19	973.11	53.678	477.19	973.11	53.678	421.52	886.9	167.04	556.67	973.81	44.618	475.8	1052.9	47.627	486.17	979.28	132.93	173.25	187.22	-33.783	299.71	1043.3	250.67
715	3.575	429.2	785.87	384.43	9	2014	4	215.79	88.502	-48.165	436.78	334.41	-25.28	355.86	1383.9	-96.262	345.07	304.84	-72.123	476.13	1594.1	0.024372	253.43	72.98	16.621	371.85	1195.2	309.31	294.01	35.537	-23.892	493.8	1592.2	92.934	499.08	984.23	198.48	322.18	1077.2	343.17	342.29	1203.4	-190.08	490.76	1242	52.394	377.58	1376.4	214	333.54	930.9	364.95	418.13	587.2	229.61	429.6	1344.5	52.385	342.14	1558.6	139.24	433.9	591.27	-111.97	361.57	824.02	373.71	422.68	791.08	-213.62	475.3	675.15	229.79	411.15	500.17	205.53	380.44	748.41	-152.1	424.71	754.05	274.31	249.67	1322.2	178.13	406.67	260.69	186.94	426.24	256.81	127.17	462.69	692.05	-128.16	413.55	172.42	130.62	326.4	939.62	-228.75	308.23	1078.2	-216.63	401.53	839.3	-176.36	463.2	479.24	-91.168	293.12	1422.7	73.137	478.36	34.316	93.963	419.59	669.79	250.1	230.06	965.65	30.859	546.85	30.239	121.19	438.16	343.43	130.46	367.63	281.27	-20.505	361.23	828.37	-235.54	407.51	671.63	-126.3	275.62	1050.3	-142.89	300.08	228.22	-19.994	239.86	976.17	119.85	215.31	169.56	45.697	234.96	970.91	75.352	365.33	62.183	156.46	376.74	69.33	73.937	319.8	1553.6	-1.0134	300.59	29.1	123.48	493.58	24.719	155.11	417.8	834.64	330.86	222.03	1155.1	66.697	466.36	962.48	-91.171	131.06	203.12	14.185	404.67	872.14	-30.223	358.84	972.13	64.502	482.72	973.36	53.653	482.72	973.36	53.653	426.92	886.93	166.74	562.2	973.99	44.626	481.42	1053.1	47.809	491.67	979.31	132.93	189.37	183.53	-34.283	307.03	1043.6	251.09
716	3.58	439.47	787.68	384.9	9	2014	4	235.2	86.012	-49.442	449.9	335.49	-25.791	361.57	1384	-96.579	358.8	304.15	-72.59	482.36	1594.1	-0.21564	273.26	71.177	15.323	378.38	1195.9	309.37	315.14	35.471	-25.312	499.95	1592.2	92.693	504.53	984.08	198.48	329.37	1077.8	343.52	347.12	1203.4	-190.14	496.56	1242	51.524	383.76	1376.8	213.65	342.17	931.52	365.38	421.42	587.13	229.18	435.51	1344.6	51.98	348.22	1558.9	138.92	442.9	592.42	-112.34	371.33	824.95	374.16	422.21	789.51	-214.62	479.25	674.64	229.01	413.1	500.14	205.38	386.66	748.65	-152.28	429.55	753.85	273.84	255.72	1322.7	178.13	407.14	260.68	186.96	426.81	256.72	127.24	469.99	693.64	-129.05	413.88	172.38	130.66	328.38	939.72	-229.02	312.2	1078.4	-216.48	402.06	838.06	-177.22	473.79	480.83	-91.579	299.12	1423	72.935	478.38	34.305	93.975	423.63	669.66	249.64	235.53	966.08	30.785	546.84	30.282	121.22	438.99	343.31	130.55	381.87	281	-21.018	361.46	828.06	-236.35	415.16	672.35	-126.61	279.63	1050.8	-142.65	315.44	226.59	-20.535	245.38	976.5	119.75	231.98	166.08	45.141	240.46	971.29	75.265	365.4	62.262	156.41	376.82	69.383	73.905	325.91	1554	-1.3663	300.61	29.227	123.45	493.55	24.873	155.14	427.36	836.05	331.13	227.72	1155.5	66.973	471.97	963.07	-91.173	146.58	197.2	13.705	410.18	872.65	-30.495	364.35	972.43	64.459	488.25	973.57	53.653	488.25	973.57	53.653	432.32	886.94	166.47	567.74	974.16	44.675	487.02	1053.4	48.003	497.16	979.33	132.95	205.72	179.6	-34.831	314.35	1043.9	251.48
717	3.585	449.7	789.49	385.32	9	2014	4	254.88	83.398	-50.702	462.98	336.55	-26.263	367.27	1384.1	-96.907	372.58	303.33	-73.063	488.58	1594	-0.47209	293.29	69.32	14.075	384.84	1196.6	309.43	336.48	35.392	-26.631	506.09	1592.1	92.438	509.95	983.94	198.52	336.51	1078.2	343.85	351.95	1203.3	-190.21	502.36	1242	50.645	389.95	1377.1	213.27	350.76	932.1	365.78	424.63	587.08	228.78	441.42	1344.7	51.558	354.28	1559.1	138.58	451.81	593.55	-112.68	381.07	825.86	374.56	421.76	788.02	-215.67	483.19	674.09	228.19	414.97	500.11	205.26	392.89	748.85	-152.48	434.46	753.63	273.38	261.79	1323.1	178.13	407.57	260.68	187.02	427.39	256.65	127.36	477.25	695.17	-129.92	414.2	172.34	130.73	330.34	939.83	-229.31	316.13	1078.6	-216.35	402.61	836.86	-178.12	484.25	482.4	-91.949	305.11	1423.2	72.723	478.4	34.294	93.991	427.66	669.53	249.2	241	966.44	30.651	546.83	30.322	121.25	439.82	343.2	130.69	396.16	280.66	-21.512	361.7	827.78	-237.18	422.77	673.04	-126.92	283.6	1051.3	-142.43	330.95	224.84	-21.078	250.89	976.77	119.59	248.84	162.42	44.555	245.94	971.6	75.118	365.47	62.341	156.36	376.91	69.442	73.875	332.02	1554.3	-1.7509	300.63	29.354	123.43	493.53	25.023	155.17	436.9	837.45	331.37	233.4	1155.8	67.235	477.61	963.59	-91.164	162.37	190.99	13.122	415.73	873.1	-30.746	369.86	972.68	64.398	493.78	973.76	53.677	493.78	973.76	53.677	437.71	886.93	166.24	573.28	974.32	44.764	492.61	1053.6	48.203	502.63	979.33	132.99	222.32	175.43	-35.429	321.66	1044.2	251.85
718	3.59	459.9	791.29	385.71	9	2014	4	274.8	80.68	-51.952	476.01	337.58	-26.694	372.97	1384.1	-97.247	386.43	302.39	-73.543	494.78	1593.9	-0.74584	313.53	67.421	12.861	391.26	1197.2	309.51	357.98	35.304	-27.87	512.22	1591.9	92.168	515.34	983.79	198.59	343.62	1078.7	344.16	356.78	1203.2	-190.28	508.13	1241.9	49.762	396.16	1377.4	212.88	359.33	932.64	366.15	427.77	587.03	228.4	447.32	1344.7	51.117	360.32	1559.3	138.22	460.62	594.67	-112.99	390.8	826.75	374.91	421.33	786.62	-216.77	487.1	673.49	227.36	416.77	500.1	205.18	399.14	749.01	-152.72	439.45	753.4	272.92	267.87	1323.5	178.13	407.96	260.68	187.1	427.97	256.57	127.52	484.46	696.64	-130.76	414.52	172.3	130.84	332.31	939.94	-229.62	320.02	1078.7	-216.24	403.2	835.71	-179.06	494.56	483.95	-92.278	311.09	1423.4	72.498	478.42	34.283	94.011	431.69	669.39	248.76	246.46	966.71	30.459	546.82	30.359	121.29	440.66	343.09	130.87	410.48	280.24	-21.99	361.95	827.54	-238.02	430.32	673.7	-127.23	287.55	1051.7	-142.21	346.58	222.98	-21.628	256.37	976.96	119.37	265.91	158.61	43.935	251.42	971.83	74.912	365.53	62.42	156.31	377.01	69.506	73.847	338.11	1554.6	-2.1674	300.65	29.482	123.41	493.51	25.167	155.19	446.42	838.85	331.58	239.07	1156.1	67.482	483.29	964.04	-91.147	178.45	184.53	12.436	421.3	873.47	-30.976	375.37	972.88	64.316	499.32	973.92	53.72	499.32	973.92	53.72	443.1	886.9	166.04	578.83	974.45	44.889	498.19	1053.7	48.404	508.09	979.32	133.05	239.16	171.06	-36.083	328.96	1044.4	252.19
719	3.595	470.06	793.08	386.06	9	2014	4	294.95	77.877	-53.202	488.98	338.59	-27.086	378.66	1384.1	-97.602	400.33	301.35	-74.034	500.98	1593.8	-1.0378	333.96	65.49	11.665	397.64	1197.7	309.6	379.64	35.213	-29.057	518.34	1591.7	91.881	520.72	983.64	198.69	350.68	1079.1	344.45	361.6	1203.1	-190.36	513.89	1241.8	48.881	402.37	1377.7	212.46	367.86	933.15	366.48	430.83	587	228.04	453.2	1344.6	50.661	366.35	1559.4	137.83	469.31	595.77	-113.26	400.5	827.61	375.22	420.92	785.29	-217.92	490.98	672.85	226.51	418.5	500.1	205.13	405.38	749.13	-152.97	444.5	753.15	272.46	273.96	1323.9	178.13	408.33	260.68	187.19	428.55	256.49	127.71	491.6	698.04	-131.57	414.83	172.27	130.96	334.26	940.06	-229.94	323.87	1078.8	-216.14	403.81	834.61	-180.03	504.72	485.46	-92.566	317.07	1423.6	72.259	478.44	34.272	94.033	435.71	669.25	248.34	251.93	966.91	30.209	546.82	30.392	121.32	441.51	342.98	131.1	424.85	279.77	-22.452	362.21	827.33	-238.86	437.81	674.34	-127.54	291.47	1052.1	-142.01	362.36	221.02	-22.187	261.83	977.07	119.09	283.19	154.67	43.274	256.88	971.99	74.649	365.59	62.499	156.27	377.1	69.573	73.819	344.2	1554.8	-2.6159	300.67	29.613	123.39	493.49	25.307	155.2	455.93	840.24	331.76	244.73	1156.3	67.711	489.01	964.41	-91.127	194.82	177.84	11.65	426.91	873.75	-31.187	380.87	973.01	64.215	504.86	974.03	53.78	504.86	974.03	53.78	448.48	886.82	165.89	584.38	974.55	45.044	503.77	1053.9	48.603	513.55	979.29	133.13	256.25	166.51	-36.796	336.25	1044.5	252.51
720	3.6	480.18	794.85	386.37	9	2014	4	315.31	75.007	-54.464	501.9	339.58	-27.437	384.36	1384	-97.972	414.29	300.2	-74.538	507.16	1593.6	-1.3489	354.57	63.54	10.469	403.98	1198.2	309.68	401.42	35.125	-30.217	524.44	1591.4	91.577	526.08	983.48	198.82	357.71	1079.4	344.72	366.42	1202.9	-190.46	519.62	1241.6	48.007	408.59	1377.9	212.02	376.36	933.63	366.77	433.81	586.97	227.71	459.07	1344.5	50.189	372.36	1559.5	137.42	477.88	596.84	-113.51	410.18	828.44	375.47	420.56	784.04	-219.1	494.83	672.16	225.66	420.18	500.11	205.11	411.62	749.23	-153.24	449.59	752.87	272.01	280.07	1324.2	178.12	408.69	260.68	187.3	429.14	256.42	127.91	498.68	699.38	-132.35	415.14	172.24	131.1	336.22	940.18	-230.27	327.67	1078.9	-216.05	404.46	833.56	-181.04	514.71	486.94	-92.813	323.04	1423.6	72.004	478.46	34.261	94.058	439.71	669.1	247.93	257.39	967.02	29.902	546.82	30.42	121.35	442.37	342.86	131.35	439.25	279.24	-22.902	362.5	827.15	-239.71	445.24	674.94	-127.84	295.38	1052.4	-141.81	378.27	218.98	-22.759	267.27	977.12	118.76	300.7	150.62	42.564	262.33	972.07	74.33	365.65	62.578	156.22	377.21	69.641	73.79	350.27	1555	-3.0962	300.69	29.751	123.38	493.48	25.444	155.22	465.41	841.63	331.92	250.37	1156.5	67.922	494.75	964.69	-91.111	211.51	170.97	10.769	432.55	873.94	-31.382	386.37	973.08	64.092	510.41	974.09	53.854	510.41	974.09	53.854	453.85	886.72	165.77	589.94	974.61	45.226	509.35	1053.9	48.795	518.99	979.23	133.23	273.58	161.8	-37.571	343.51	1044.6	252.81
